<?xml version="1.0" ?><svg enable-background="new 0 0 175.836 171.8964" id="linkedin" version="1.1" viewBox="0 0 175.836 171.8964" xml:space="preserve" xmlns="http://www.w3.org/2000/svg" xmlns:xlink="http://www.w3.org/1999/xlink"><g><path d="M17.5663,0C6.9375,0,0,7.16,0,16.488c0,9.1036,6.7227,16.4728,17.1367,16.4728   c11.0584,0,17.7852-7.3692,17.7812-16.4728C34.6991,7.156,28.1875,0,17.5663,0z" fill="#bcbcce"/><path d="M130.5939,47.7208c-19.5704,0-30.4179,8.488-35.1916,16.1756h-0.7148l-1.6288-16.1756H60v41.0156v83.16   h31.836v-65.4728c0-3.3672,1.2579-10.1872,2.3435-12.5272c5.8868-12.6796,14.7464-12.6796,24.7656-12.6796   c13.1136,0,24.8909,12.0352,24.8909,27.1876v63.492h32v-70.6796C175.836,66.6036,154.4491,47.7208,130.5939,47.7208z" fill="#bcbcce"/><rect fill="#bcbcce" height="124.1756" width="27.9531" x="3.836" y="47.7208"/></g></svg>